<?xml version="1.0" standalone="no"?>
<!DOCTYPE svg PUBLIC "-//W3C//DTD SVG 20010904//EN"
 "http://www.w3.org/TR/2001/REC-SVG-20010904/DTD/svg10.dtd">
<svg version="1.0" xmlns="http://www.w3.org/2000/svg"
 width="378.000000pt" height="378.000000pt" viewBox="0 0 378.000000 378.000000"
 preserveAspectRatio="xMidYMid meet">

<g transform="translate(0.000000,378.000000) scale(0.100000,-0.100000)"
fill="#000000" stroke="none">
<path d="M1692 3468 c-14 -14 -5 -412 10 -440 9 -18 34 -23 62 -12 13 5 16 26
16 130 0 116 1 124 22 138 30 21 61 20 89 -2 20 -17 23 -30 28 -128 3 -60 10
-115 14 -121 11 -18 52 -16 67 2 17 20 6 210 -14 259 -28 68 -111 105 -188 83
-27 -7 -28 -6 -28 28 0 20 -5 45 -10 56 -12 21 -50 25 -68 7z"/>
<path d="M2205 3326 c-132 -60 -153 -254 -36 -332 57 -37 124 -43 179 -15 45
23 59 50 42 81 -9 17 -8 20 8 20 30 0 42 21 42 77 0 72 -28 125 -83 158 -49
28 -104 32 -152 11z m116 -89 c9 -7 21 -22 28 -34 15 -28 10 -29 -82 -7 -65
16 -67 18 -51 35 20 22 80 25 105 6z m-39 -133 c71 -17 75 -25 27 -50 -37 -18
-90 -5 -114 29 -20 29 -19 50 3 43 9 -3 47 -13 84 -22z"/>
<path d="M1374 3301 c-125 -57 -138 -237 -23 -321 48 -34 96 -44 148 -30 77
20 145 106 121 150 -16 29 -61 23 -77 -10 -38 -76 -131 -82 -168 -10 -39 75
-2 150 74 150 22 0 43 -4 46 -10 3 -5 19 -10 35 -10 23 0 31 5 36 25 17 67
-100 108 -192 66z"/>
<path d="M2643 3250 c-11 -19 -25 -30 -40 -30 -25 0 -43 -44 -25 -62 7 -7 3
-24 -14 -54 -13 -24 -35 -64 -49 -89 -31 -56 -33 -113 -5 -148 37 -47 140 -44
140 6 0 29 -18 47 -45 47 -12 0 -25 3 -28 7 -7 6 64 147 83 167 5 5 22 4 40
-4 27 -11 33 -10 50 5 27 25 25 36 -11 65 -28 23 -29 28 -19 52 28 61 -42 96
-77 38z"/>
<path d="M2942 3128 c-19 -19 -14 -56 8 -68 46 -25 88 23 54 61 -20 22 -44 25
-62 7z"/>
<path d="M965 3096 c-62 -28 -115 -109 -115 -175 0 -29 32 -105 53 -126 78
-77 209 -73 280 9 78 90 50 234 -55 285 -50 24 -118 27 -163 7z m125 -83 c39
-27 49 -45 50 -86 0 -50 -24 -84 -70 -98 -66 -20 -130 27 -130 96 0 80 88 131
150 88z"/>
<path d="M2799 2938 c-44 -57 -89 -114 -100 -128 -23 -29 -24 -40 -6 -65 25
-33 58 -12 132 85 134 176 128 166 116 189 -7 13 -21 21 -36 21 -20 0 -42 -22
-106 -102z"/>
<path d="M3100 2933 c-14 -10 -35 -16 -46 -15 -25 4 -56 -32 -47 -54 3 -8 -27
-44 -75 -89 -88 -83 -101 -113 -78 -170 20 -48 70 -68 120 -49 34 13 12 74
-26 74 -33 0 -18 27 49 89 63 58 93 74 93 51 0 -6 11 -16 25 -22 21 -9 28 -8
45 7 25 23 25 30 -1 66 l-20 29 20 26 c22 28 19 49 -10 64 -23 13 -20 13 -49
-7z"/>
<path d="M695 2864 c-14 -15 -25 -33 -25 -40 0 -7 -10 -14 -21 -16 -12 -2 -28
-13 -37 -26 -14 -21 -12 -25 44 -80 138 -135 185 -173 213 -170 21 2 27 9 29
33 2 26 -7 38 -67 90 -85 74 -102 106 -78 147 22 39 21 65 -2 78 -27 14 -29
13 -56 -16z"/>
<path d="M1817 2844 c-4 -4 -7 -17 -7 -29 0 -13 -7 -28 -15 -35 -23 -19 -38
-83 -31 -125 10 -51 29 -38 31 21 0 35 8 61 28 92 28 43 32 72 11 79 -5 2 -13
0 -17 -3z"/>
<path d="M1620 2794 c0 -3 10 -20 23 -37 13 -18 32 -51 42 -74 16 -38 45 -59
45 -33 0 23 -35 97 -58 123 -23 24 -52 36 -52 21z"/>
<path d="M1904 2752 c-19 -12 -32 -46 -36 -91 -5 -65 15 -60 32 6 l15 58 68 3
c51 2 67 6 67 17 0 12 -15 15 -67 15 -38 0 -73 -4 -79 -8z"/>
<path d="M1520 2727 c0 -28 63 -95 97 -104 31 -7 43 6 19 21 -40 24 -78 60
-87 83 -11 30 -29 30 -29 0z"/>
<path d="M2072 2655 c-17 -20 -27 -75 -14 -75 7 0 18 14 27 30 9 17 22 30 30
30 27 0 63 -22 74 -47 10 -22 16 -24 49 -18 44 8 72 22 72 35 0 12 -16 13 -58
1 -27 -8 -34 -7 -42 10 -23 42 -111 64 -138 34z"/>
<path d="M1347 2654 c-10 -10 15 -53 35 -60 12 -3 27 1 38 11 13 12 27 15 54
10 40 -8 50 7 17 25 -26 14 -57 13 -82 -2 -17 -11 -22 -10 -30 5 -10 18 -21
21 -32 11z"/>
<path d="M3115 2601 c-24 -10 -52 -35 -70 -61 -25 -37 -30 -53 -30 -104 1 -74
33 -130 96 -166 35 -19 51 -22 110 -18 l68 5 10 -47 c39 -179 45 -407 17 -566
-57 -318 -198 -581 -433 -804 -210 -200 -454 -322 -748 -375 -105 -19 -365
-19 -470 0 -461 83 -840 361 -1045 768 -150 297 -194 635 -124 960 14 64 20
77 33 71 35 -14 102 -16 133 -4 44 18 87 58 104 97 27 62 12 156 -26 168 -41
13 -71 -26 -50 -65 15 -28 4 -73 -23 -98 -22 -20 -41 -25 -86 -23 -31 1 -91
63 -91 93 0 38 37 88 70 94 38 8 54 28 46 59 -5 21 -12 25 -42 25 -47 0 -87
-22 -121 -67 -24 -32 -28 -45 -28 -104 0 -53 5 -73 21 -96 21 -28 21 -32 8
-84 -61 -228 -60 -519 1 -764 34 -134 128 -337 215 -465 116 -168 289 -332
463 -436 108 -65 108 -64 214 -107 537 -214 1136 -107 1572 282 218 193 387
482 454 771 53 231 51 497 -7 721 -13 48 -12 54 7 88 16 26 22 52 21 92 -2
136 -140 219 -269 160z m128 -72 c63 -32 76 -107 28 -161 -24 -27 -36 -33 -71
-33 -35 0 -47 6 -71 33 -76 84 15 212 114 161z"/>
<path d="M1270 2530 c-15 -16 -33 -44 -40 -62 -7 -18 -20 -41 -28 -51 -8 -9
-12 -20 -8 -24 13 -14 41 14 69 69 16 32 38 60 52 66 30 14 33 32 4 32 -12 0
-33 -13 -49 -30z"/>
<path d="M2297 2464 c-11 -12 3 -24 28 -24 30 0 81 -43 104 -89 28 -53 61 -79
110 -87 34 -6 43 -4 39 7 -2 7 -20 17 -39 22 -44 11 -64 30 -90 84 -11 24 -36
55 -53 68 -31 23 -84 33 -99 19z"/>
<path d="M1162 2333 c-14 -5 -52 -75 -52 -94 0 -7 -11 -27 -25 -45 -42 -55
-29 -75 17 -26 32 34 48 65 48 91 0 11 14 30 30 43 17 12 30 25 30 30 0 9 -27
10 -48 1z"/>
<path d="M2533 2165 c-32 -13 -40 -25 -27 -37 3 -4 21 0 39 8 19 8 46 14 60
14 21 0 25 -5 25 -28 0 -16 -9 -37 -20 -47 -22 -20 -26 -50 -9 -60 6 -4 22 4
36 16 15 14 27 19 30 13 2 -6 10 -20 18 -30 13 -18 14 -18 20 -2 4 11 -1 32
-14 53 -12 20 -21 44 -21 53 0 10 -7 28 -16 40 -18 26 -71 29 -121 7z"/>
<path d="M1036 2039 c-15 -4 -36 -15 -47 -24 -17 -16 -20 -16 -48 4 -34 24
-51 27 -51 7 0 -7 20 -24 44 -36 l43 -24 27 22 c15 11 40 24 56 27 17 4 30 10
30 15 0 13 -23 17 -54 9z"/>
<path d="M2680 1940 c0 -5 17 -18 38 -29 50 -25 68 -48 111 -133 30 -61 45
-79 91 -110 44 -29 56 -43 60 -69 7 -48 30 -50 30 -2 -1 47 -11 61 -74 97 -41
24 -53 38 -81 100 -31 68 -60 103 -115 139 -27 19 -60 22 -60 7z"/>
<path d="M875 1888 c-54 -47 -125 -197 -125 -263 1 -32 20 -65 39 -65 14 0 14
15 0 42 -23 43 43 201 111 267 35 34 42 51 19 51 -5 0 -25 -14 -44 -32z"/>
<path d="M2150 1805 c0 -3 9 -14 20 -25 38 -38 18 -90 -35 -90 -27 0 -37 6
-48 27 -14 26 -15 26 -21 5 -10 -29 9 -85 36 -108 12 -11 18 -13 14 -6 -12 20
23 55 41 41 16 -14 17 -41 1 -57 -16 -16 19 -17 58 -2 85 33 97 154 20 201
-28 17 -86 26 -86 14z"/>
<path d="M1504 1769 c28 -22 35 -66 14 -87 -21 -21 -65 -14 -87 14 l-21 27 0
-37 c0 -39 24 -96 40 -96 6 0 10 9 10 20 0 25 25 36 45 20 19 -16 19 -25 -1
-44 -14 -15 -12 -16 21 -16 29 0 45 8 72 35 33 33 35 39 30 82 -7 63 -49 103
-109 103 l-41 0 27 -21z"/>
<path d="M2490 1753 c0 -4 7 -17 15 -27 18 -24 19 -77 4 -160 -10 -51 -9 -67
4 -98 9 -22 23 -38 33 -38 12 0 14 5 8 18 -15 34 -16 97 -4 163 12 60 11 70
-6 105 -17 34 -55 60 -54 37z"/>
<path d="M1141 1636 c-14 -55 -14 -71 0 -118 5 -22 16 -38 24 -38 11 0 15 -12
15 -45 0 -33 4 -45 15 -45 11 0 15 12 15 44 0 24 3 52 7 62 5 14 2 16 -20 10
-25 -6 -27 -4 -29 26 -3 51 -2 60 5 106 10 60 -17 58 -32 -2z"/>
<path d="M2880 1589 c0 -6 14 -30 31 -55 41 -60 56 -98 64 -169 8 -69 40 -151
62 -159 29 -11 32 5 8 40 -14 20 -27 52 -30 73 -18 118 -30 156 -69 216 -37
59 -66 82 -66 54z"/>
<path d="M824 1548 c-4 -13 -7 -52 -6 -88 0 -36 -3 -81 -8 -100 -11 -42 4
-108 26 -117 23 -8 24 -1 10 42 -9 24 -11 49 -6 66 14 47 16 212 3 216 -6 2
-15 -6 -19 -19z"/>
<path d="M1754 1539 c-3 -6 8 -24 25 -41 17 -17 31 -34 31 -39 0 -5 7 -9 15
-9 19 0 19 4 1 39 -18 35 -62 65 -72 50z"/>
<path d="M1921 1501 c-33 -30 -41 -61 -17 -61 8 0 17 8 20 18 4 11 18 25 31
32 25 13 29 30 8 37 -5 2 -24 -10 -42 -26z"/>
<path d="M1588 1473 c-21 -9 -38 -19 -38 -24 0 -18 21 -19 51 -3 26 13 39 14
69 5 47 -14 50 -14 50 3 0 14 -50 37 -79 35 -9 -1 -33 -8 -53 -16z"/>
<path d="M2033 1456 c-23 -11 -32 -36 -13 -36 21 0 71 31 65 40 -8 12 -23 11
-52 -4z"/>
<path d="M2200 1432 c0 -35 62 -71 86 -51 22 18 16 29 -17 29 -22 0 -32 5 -36
20 -7 25 -33 26 -33 2z"/>
<path d="M1376 1385 c-20 -19 -40 -35 -46 -35 -5 0 -10 -4 -10 -10 0 -5 10
-10 23 -10 22 1 97 62 97 80 0 21 -31 9 -64 -25z"/>
<path d="M1224 1375 c-8 -32 15 -117 30 -112 6 2 11 11 10 20 0 10 -1 40 -2
67 -2 55 -26 71 -38 25z"/>
<path d="M2502 1363 c3 -21 -1 -63 -8 -93 -17 -70 -17 -80 -1 -80 15 0 47 101
47 146 0 30 -16 64 -31 64 -7 0 -9 -15 -7 -37z"/>
<path d="M2317 1324 c-13 -13 5 -24 38 -24 41 0 60 -27 51 -74 -5 -25 0 -40
19 -66 14 -19 25 -42 25 -52 0 -10 7 -18 15 -18 21 0 18 40 -5 70 -13 17 -20
41 -20 76 0 62 -27 94 -81 94 -20 0 -39 -3 -42 -6z"/>
<path d="M2900 1297 c0 -2 9 -30 20 -62 26 -75 25 -91 -6 -160 -21 -45 -25
-64 -18 -83 14 -39 29 -32 31 14 0 22 11 56 22 75 13 20 21 50 20 74 -1 55
-32 139 -52 143 -10 2 -17 2 -17 -1z"/>
<path d="M1282 1214 c-27 -41 -27 -101 0 -118 24 -15 29 -5 16 31 -10 26 -8
36 10 67 12 21 22 41 22 47 0 21 -27 6 -48 -27z"/>
<path d="M903 1232 c-19 -12 16 -192 37 -192 24 0 61 118 47 153 -8 22 -39 10
-32 -12 2 -9 1 -29 -4 -46 -8 -29 -9 -28 -15 20 -9 66 -18 86 -33 77z"/>
<path d="M1825 1185 c-27 -27 -35 -44 -36 -73 -3 -81 6 -97 55 -110 24 -7 30
-14 29 -31 -4 -36 -33 -71 -59 -71 -15 0 -24 -6 -24 -15 0 -23 45 -18 76 8
l27 23 23 -23 c27 -27 84 -32 84 -8 0 9 -9 15 -24 15 -27 0 -66 42 -66 70 0
10 10 20 24 24 13 3 38 22 56 43 28 32 32 41 27 77 -8 58 -61 106 -117 106
-32 0 -46 -7 -75 -35z m127 -12 c27 -24 22 -36 -7 -17 -14 9 -36 14 -50 12
-26 -5 -35 6 -12 15 24 10 51 7 69 -10z"/>
<path d="M2785 1173 c4 -10 9 -36 12 -58 4 -34 -1 -47 -29 -87 l-34 -48 -29
30 c-26 27 -65 41 -65 23 0 -5 15 -20 34 -35 19 -16 37 -41 41 -58 8 -37 45
-43 45 -7 0 22 7 36 47 98 25 37 30 93 11 134 -13 29 -45 36 -33 8z"/>
<path d="M1006 1128 c-11 -41 -6 -92 13 -134 20 -44 63 -84 91 -84 22 0 47 28
55 63 10 39 -20 36 -34 -3 -12 -35 -24 -37 -50 -11 -39 39 -54 81 -48 138 4
40 2 53 -8 53 -7 0 -15 -10 -19 -22z"/>
<path d="M1320 1040 c0 -24 24 -118 36 -142 16 -31 41 -58 55 -58 16 0 10 26
-10 44 -17 15 -27 45 -47 144 -4 21 -34 32 -34 12z"/>
<path d="M475 1025 c-19 -16 -19 -16 3 -5 12 6 32 8 43 5 20 -7 89 -100 89
-122 0 -19 -99 -93 -125 -93 -15 0 -33 12 -49 33 -14 17 -26 27 -26 22 0 -6
13 -26 28 -44 35 -42 58 -39 131 19 62 50 64 68 13 141 -41 59 -72 72 -107 44z"/>
<path d="M2527 1000 c-7 -27 9 -84 28 -100 31 -26 88 11 97 64 5 28 -20 31
-31 4 -23 -60 -56 -54 -63 11 -3 39 -23 52 -31 21z"/>
<path d="M1216 983 c14 -58 63 -101 87 -77 10 10 -4 33 -18 28 -7 -3 -19 10
-29 35 -19 48 -51 58 -40 14z"/>
<path d="M2446 933 c1 -26 3 -50 3 -52 1 -2 8 2 17 9 20 17 15 84 -6 88 -12 2
-15 -7 -14 -45z"/>
<path d="M456 943 c-18 -36 -5 -70 29 -79 34 -8 65 19 65 57 0 52 -70 68 -94
22z m73 -12 c13 -24 -8 -55 -34 -50 -23 5 -40 32 -32 53 9 22 54 20 66 -3z"/>
<path d="M2379 904 c-7 -8 -30 -24 -52 -36 -26 -13 -36 -23 -29 -30 18 -18
129 52 116 73 -8 13 -20 11 -35 -7z"/>
<path d="M570 900 c0 -5 5 -10 10 -10 6 0 10 5 10 10 0 6 -4 10 -10 10 -5 0
-10 -4 -10 -10z"/>
<path d="M1480 890 c0 -50 55 -110 100 -110 29 0 24 12 -13 35 -18 11 -41 37
-52 58 -22 41 -35 47 -35 17z"/>
<path d="M2212 826 c-12 -32 -14 -34 -52 -29 -32 5 -40 2 -40 -10 0 -17 71
-34 91 -22 11 8 39 67 39 85 0 24 -27 7 -38 -24z"/>
<path d="M1656 832 c-8 -13 29 -68 58 -88 26 -16 56 -14 56 5 0 5 -10 11 -22
13 -12 2 -33 19 -46 38 -25 38 -37 46 -46 32z"/>
<path d="M2035 800 c-10 -11 -33 -25 -52 -32 -18 -7 -32 -17 -30 -23 6 -15 49
-7 80 16 l29 21 23 -22 c36 -34 50 -15 17 26 -31 39 -42 42 -67 14z"/>
<path d="M1790 793 c2 -29 55 -63 97 -63 42 0 57 14 49 44 -7 29 -39 37 -34 9
4 -27 -43 -29 -67 -3 -18 20 -45 27 -45 13z"/>
<path d="M2000 277 c-46 -23 -65 -94 -35 -133 8 -10 15 -29 15 -41 0 -23 23
-32 35 -13 3 6 21 10 39 10 87 0 123 135 46 175 -35 18 -67 19 -100 2z m113
-45 c33 -56 3 -104 -73 -115 -32 -4 -37 -2 -52 30 -24 46 -23 75 5 100 43 41
91 35 120 -15z"/>
<path d="M1996 221 c-16 -26 30 -61 79 -61 16 0 25 6 25 16 0 12 -6 15 -24 10
-27 -7 -59 2 -51 14 3 4 -2 13 -9 19 -9 7 -17 8 -20 2z"/>
</g>
</svg>
